<?xml version="1.0" encoding="utf-8"?>
<!-- Generator: Adobe Illustrator 18.1.0, SVG Export Plug-In . SVG Version: 6.00 Build 0)  -->
<!DOCTYPE svg PUBLIC "-//W3C//DTD SVG 1.1//EN" "http://www.w3.org/Graphics/SVG/1.1/DTD/svg11.dtd">
<svg version="1.1" xmlns="http://www.w3.org/2000/svg" xmlns:xlink="http://www.w3.org/1999/xlink" x="0px" y="0px"
	 viewBox="0 0 2405 685.6" xml:space="preserve">
<g id="Layer_2">
</g>
<g id="Layer_1">
	<g>
		<path fill="none" stroke="#252323" stroke-width="1.9" stroke-miterlimit="10" d="M570.5,315.5"/>
		<g>
			<path fill="#ECEDED" d="M882.2,425c0.1-0.5,0.5-1,1.2-1h1.1c0.5,0,1,0.3,1.2,0.7l15,32.3c0.1,0,0.1,0,0.2,0l15-32.3
				c0.2-0.4,0.5-0.7,1.2-0.7h1.1c0.8,0,1.2,0.5,1.2,1l8.1,45.9c0.2,1-0.3,1.6-1.2,1.6H920c-0.6,0-1.2-0.5-1.3-1l-4-25.9
				c-0.1,0-0.2,0-0.2,0l-12,26.9c-0.1,0.4-0.5,0.8-1.2,0.8h-1.2c-0.6,0-1-0.3-1.2-0.8l-12.1-26.9c0,0-0.1,0-0.2,0l-4,25.9
				c-0.1,0.5-0.6,1-1.2,1h-6.2c-0.9,0-1.4-0.6-1.3-1.6L882.2,425z"/>
		</g>
		<g>
			<path fill="#ECEDED" d="M995.8,425.9c0-0.7,0.5-1.3,1.3-1.3h6.3c0.7,0,1.3,0.6,1.3,1.3v38.3h17.4c0.8,0,1.3,0.6,1.3,1.3v5.6
				c0,0.7-0.5,1.3-1.3,1.3h-25c-0.8,0-1.3-0.6-1.3-1.3V425.9z"/>
		</g>
		<g>
			<path fill="#ECEDED" d="M1093.8,425.9c0-0.7,0.5-1.3,1.2-1.3h16.2c13.2,0,24,10.7,24,23.9c0,13.3-10.8,24-24,24H1095
				c-0.7,0-1.2-0.6-1.2-1.3V425.9z M1110.4,464.1c8.9,0,15.4-6.7,15.4-15.7c0-8.9-6.5-15.6-15.4-15.6h-7.8v31.2H1110.4z"/>
		</g>
		<g>
			<path fill="#ECEDED" d="M1202.3,425.9c0-0.7,0.5-1.3,1.3-1.3h19.5c8.2,0,14.9,6.6,14.9,14.7c0,6.3-4.2,11.4-10.1,13.8l9.4,17.4
				c0.5,0.9,0,2-1.2,2h-7.2c-0.6,0-1-0.3-1.1-0.6l-9.1-18.1h-7.6v17.4c0,0.7-0.6,1.3-1.3,1.3h-6.3c-0.8,0-1.3-0.6-1.3-1.3V425.9z
				 M1222.4,446.4c3.6,0,6.8-3.1,6.8-7c0-3.6-3.1-6.6-6.8-6.6h-11.1v13.6H1222.4z"/>
		</g>
		<g>
			<path fill="#ECEDED" d="M1310.9,425.9c0-0.7,0.5-1.3,1.3-1.3h16.1c8.4,0,15.3,6.8,15.3,15.1c0,8.5-6.9,15.4-15.2,15.4h-8.5v16.1
				c0,0.7-0.6,1.3-1.3,1.3h-6.3c-0.8,0-1.3-0.6-1.3-1.3V425.9z M1327.7,446.8c3.8,0,7-3.1,7-7.1c0-3.8-3.2-6.6-7-6.6h-7.9v13.7
				H1327.7z"/>
		</g>
		<g>
			<path fill="#ECEDED" d="M1414.3,425.9c0-0.7,0.5-1.3,1.3-1.3h19.5c8.2,0,14.9,6.6,14.9,14.7c0,6.3-4.2,11.4-10.1,13.8l9.4,17.4
				c0.5,0.9,0,2-1.2,2h-7.2c-0.6,0-1-0.3-1.1-0.6l-9.1-18.1h-7.6v17.4c0,0.7-0.6,1.3-1.3,1.3h-6.3c-0.8,0-1.3-0.6-1.3-1.3V425.9z
				 M1434.4,446.4c3.6,0,6.8-3.1,6.8-7c0-3.6-3.1-6.6-6.8-6.6h-11.1v13.6H1434.4z"/>
		</g>
		<g>
			<path fill="#ECEDED" d="M1532.3,425.9c0-0.7,0.6-1.3,1.3-1.3h6.4c0.7,0,1.3,0.6,1.3,1.3v45.2c0,0.7-0.6,1.3-1.3,1.3h-6.4
				c-0.7,0-1.3-0.6-1.3-1.3V425.9z"/>
		</g>
		<g>
			<path fill="#ECEDED" d="M1622.6,425.2c0-0.7,0.6-1.2,1.3-1.2h1.7l28.4,30.2h0.1v-28.2c0-0.7,0.5-1.3,1.3-1.3h6.3
				c0.7,0,1.3,0.6,1.3,1.3v46c0,0.7-0.6,1.2-1.3,1.2h-1.6l-28.6-31.4h-0.1v29.4c0,0.7-0.5,1.3-1.3,1.3h-6.2c-0.7,0-1.3-0.6-1.3-1.3
				V425.2z"/>
		</g>
		<g>
			<path fill="#ECEDED" d="M1744.3,432.8h-10.5c-0.8,0-1.3-0.6-1.3-1.3v-5.6c0-0.7,0.5-1.3,1.3-1.3h29.9c0.8,0,1.3,0.6,1.3,1.3v5.6
				c0,0.7-0.5,1.3-1.3,1.3h-10.5v38.3c0,0.7-0.6,1.3-1.3,1.3h-6.4c-0.7,0-1.3-0.6-1.3-1.3V432.8z"/>
		</g>
		<g>
			<path fill="#ECEDED" d="M1838.7,426.3c0-0.9,0.7-1.6,1.6-1.6h6c0.9,0,1.6,0.8,1.6,1.6v18.5l17.2-19.4c0.3-0.3,0.7-0.7,1.3-0.7
				h6.8c1.3,0,2,1.4,1.1,2.5l-17.8,20.1l19.1,22.9c0.7,0.9,0.1,2.4-1.2,2.4h-7.4c-0.7,0-1.1-0.3-1.2-0.5l-17.8-22v20.8
				c0,0.9-0.8,1.6-1.6,1.6h-6c-1,0-1.6-0.8-1.6-1.6V426.3z"/>
		</g>
		<g>
			<path fill="#ECEDED" d="M1956.4,425.9c0-0.7,0.6-1.3,1.3-1.3h6.4c0.7,0,1.3,0.6,1.3,1.3v45.2c0,0.7-0.6,1.3-1.3,1.3h-6.4
				c-0.7,0-1.3-0.6-1.3-1.3V425.9z"/>
		</g>
		<g>
			<path fill="#ECEDED" d="M2052.9,425.9c0-0.7,0.5-1.3,1.3-1.3h27.8c0.8,0,1.3,0.6,1.3,1.3v5.6c0,0.7-0.5,1.3-1.3,1.3h-20.2V444
				h16.9c0.7,0,1.3,0.6,1.3,1.3v5.7c0,0.8-0.6,1.3-1.3,1.3h-16.9v12h20.2c0.8,0,1.3,0.6,1.3,1.3v5.6c0,0.7-0.5,1.3-1.3,1.3h-27.8
				c-0.8,0-1.3-0.6-1.3-1.3V425.9z"/>
		</g>
		<g>
			<path fill="#ECEDED" d="M2148.1,426.4c-0.4-0.9,0.1-1.8,1.2-1.8h7c0.6,0,1,0.4,1.2,0.8l13.1,29.4h0.5l13.1-29.4
				c0.1-0.3,0.5-0.8,1.2-0.8h7c1,0,1.6,0.9,1.2,1.8l-21.2,46c-0.2,0.4-0.5,0.8-1.2,0.8h-0.7c-0.6,0-1-0.3-1.2-0.8L2148.1,426.4z"/>
		</g>
		<g>
			<path fill="#ECEDED" d="M2262.8,425.9c0-0.7,0.5-1.3,1.3-1.3h16.1c8.4,0,15.3,6.8,15.3,15.1c0,8.5-6.9,15.4-15.2,15.4h-8.5v16.1
				c0,0.7-0.6,1.3-1.3,1.3h-6.3c-0.8,0-1.3-0.6-1.3-1.3V425.9z M2279.6,446.8c3.8,0,7-3.1,7-7.1c0-3.8-3.2-6.6-7-6.6h-7.9v13.7
				H2279.6z"/>
		</g>
		<g>
			<path fill="#ECEDED" d="M2360.1,426.4c-0.4-0.9,0.1-1.8,1.2-1.8h7c0.6,0,1,0.4,1.2,0.8l13.1,29.4h0.5l13.1-29.4
				c0.1-0.3,0.5-0.8,1.2-0.8h7c1,0,1.6,0.9,1.2,1.8l-21.2,46c-0.2,0.4-0.5,0.8-1.2,0.8h-0.7c-0.6,0-1-0.3-1.2-0.8L2360.1,426.4z"/>
		</g>
		<g>
			<path fill="#ECEDED" d="M896.2,555.8l-15.6-22.8c-0.5-0.9,0-2,1.1-2h7c0.5,0,0.9,0.3,1.1,0.6l10.9,15.7l10.9-15.7
				c0.2-0.3,0.5-0.6,1.1-0.6h7c1.1,0,1.6,1.1,1.1,2l-15.8,22.8v21.8c0,0.7-0.6,1.3-1.3,1.3h-6.3c-0.8,0-1.3-0.6-1.3-1.3V555.8z"/>
		</g>
		<g>
			<path fill="#ECEDED" d="M984.1,577l21.3-46c0.2-0.4,0.5-0.8,1.2-0.8h0.7c0.7,0,1,0.3,1.2,0.8l21.1,46c0.4,0.9-0.1,1.8-1.2,1.8
				h-5.9c-1,0-1.5-0.4-2-1.4l-3.3-7.4h-20.4l-3.3,7.4c-0.3,0.7-0.9,1.4-2,1.4h-5.9C984.3,578.8,983.7,577.9,984.1,577z
				 M1013.7,562.5l-6.8-15h-0.2l-6.7,15H1013.7z"/>
		</g>
		<g>
			<path fill="#ECEDED" d="M1092.7,532.3c0-0.7,0.6-1.3,1.3-1.3h6.4c0.8,0,1.3,0.6,1.3,1.3v18.1h22.3v-18.1c0-0.7,0.5-1.3,1.3-1.3
				h6.3c0.7,0,1.3,0.6,1.3,1.3v45.2c0,0.7-0.6,1.3-1.3,1.3h-6.3c-0.8,0-1.3-0.6-1.3-1.3v-18.9h-22.3v18.9c0,0.7-0.5,1.3-1.3,1.3
				h-6.4c-0.7,0-1.3-0.6-1.3-1.3V532.3z"/>
		</g>
		<g>
			<path fill="#ECEDED" d="M1214.4,539.2h-10.5c-0.8,0-1.3-0.6-1.3-1.3v-5.6c0-0.7,0.5-1.3,1.3-1.3h29.9c0.8,0,1.3,0.6,1.3,1.3v5.6
				c0,0.7-0.5,1.3-1.3,1.3h-10.5v38.3c0,0.7-0.6,1.3-1.3,1.3h-6.4c-0.7,0-1.3-0.6-1.3-1.3V539.2z"/>
		</g>
		<g>
			<path fill="#ECEDED" d="M1306.2,531.3c0.1-0.5,0.5-1,1.2-1h1.1c0.5,0,1,0.3,1.2,0.7l15,32.3c0.1,0,0.1,0,0.2,0l15-32.3
				c0.2-0.4,0.5-0.7,1.2-0.7h1.1c0.8,0,1.2,0.5,1.2,1l8.1,45.9c0.2,1-0.3,1.6-1.2,1.6h-6.2c-0.6,0-1.2-0.5-1.3-1l-4-25.9
				c-0.1,0-0.2,0-0.2,0l-12,26.9c-0.1,0.4-0.5,0.8-1.2,0.8h-1.2c-0.6,0-1-0.3-1.2-0.8l-12.1-26.9c0,0-0.1,0-0.2,0l-4,25.9
				c-0.1,0.5-0.6,1-1.2,1h-6.2c-0.9,0-1.4-0.6-1.3-1.6L1306.2,531.3z"/>
		</g>
		<g>
			<path fill="#ECEDED" d="M1419.8,532.3c0-0.7,0.5-1.3,1.3-1.3h6.3c0.7,0,1.3,0.6,1.3,1.3v38.3h17.4c0.8,0,1.3,0.6,1.3,1.3v5.6
				c0,0.7-0.5,1.3-1.3,1.3h-25c-0.8,0-1.3-0.6-1.3-1.3V532.3z"/>
		</g>
		<g>
			<path fill="#ECEDED" d="M1522.9,532.3c0-0.7,0.5-1.3,1.3-1.3h27.8c0.8,0,1.3,0.6,1.3,1.3v5.6c0,0.7-0.5,1.3-1.3,1.3h-20.2v11.2
				h16.9c0.7,0,1.3,0.6,1.3,1.3v5.7c0,0.8-0.6,1.3-1.3,1.3h-16.9v12h20.2c0.8,0,1.3,0.6,1.3,1.3v5.6c0,0.7-0.5,1.3-1.3,1.3h-27.8
				c-0.8,0-1.3-0.6-1.3-1.3V532.3z"/>
		</g>
		<g>
			<path fill="#ECEDED" d="M1628.8,532.3c0-0.7,0.5-1.3,1.3-1.3h16.1c8.4,0,15.3,6.8,15.3,15.1c0,8.5-6.9,15.4-15.2,15.4h-8.5v16.1
				c0,0.7-0.6,1.3-1.3,1.3h-6.3c-0.8,0-1.3-0.6-1.3-1.3V532.3z M1645.6,553.1c3.8,0,7-3.1,7-7.1c0-3.8-3.2-6.6-7-6.6h-7.9v13.7
				H1645.6z"/>
		</g>
		<g>
			<path fill="#ECEDED" d="M1726.1,577l21.3-46c0.2-0.4,0.5-0.8,1.2-0.8h0.7c0.7,0,1,0.3,1.2,0.8l21.1,46c0.4,0.9-0.1,1.8-1.2,1.8
				h-5.9c-1,0-1.5-0.4-2-1.4l-3.3-7.4h-20.4l-3.3,7.4c-0.3,0.7-0.9,1.4-2,1.4h-5.9C1726.3,578.8,1725.7,577.9,1726.1,577z
				 M1755.7,562.5l-6.8-15h-0.2l-6.7,15H1755.7z"/>
		</g>
		<g>
			<path fill="#ECEDED" d="M1839.8,572.1l2.5-4.2c0.5-1,1.7-1,2.3-0.5c0.3,0.2,5.9,4.2,10.3,4.2c3.6,0,6.2-2.3,6.2-5.3
				c0-3.5-2.9-5.9-8.7-8.2c-6.4-2.6-12.8-6.7-12.8-14.8c0-6.1,4.5-13.1,15.4-13.1c7,0,12.3,3.6,13.7,4.6c0.7,0.4,0.9,1.6,0.4,2.3
				l-2.6,3.9c-0.5,0.8-1.6,1.4-2.4,0.8c-0.5-0.3-5.7-3.8-9.5-3.8c-3.9,0-6,2.6-6,4.8c0,3.2,2.5,5.4,8.1,7.7
				c6.6,2.7,14.3,6.6,14.3,15.4c0,7-6.1,13.5-15.7,13.5c-8.6,0-13.7-4-15-5.3C1839.5,573.5,1839.2,573.2,1839.8,572.1z"/>
		</g>
		<g>
			<path fill="#ECEDED" d="M1945.8,572.1l2.5-4.2c0.5-1,1.7-1,2.3-0.5c0.3,0.2,5.9,4.2,10.3,4.2c3.6,0,6.2-2.3,6.2-5.3
				c0-3.5-2.9-5.9-8.7-8.2c-6.4-2.6-12.8-6.7-12.8-14.8c0-6.1,4.5-13.1,15.4-13.1c7,0,12.3,3.6,13.7,4.6c0.7,0.4,0.9,1.6,0.4,2.3
				l-2.6,3.9c-0.5,0.8-1.6,1.4-2.4,0.8c-0.5-0.3-5.7-3.8-9.5-3.8c-3.9,0-6,2.6-6,4.8c0,3.2,2.5,5.4,8.1,7.7
				c6.6,2.7,14.3,6.6,14.3,15.4c0,7-6.1,13.5-15.7,13.5c-8.6,0-13.7-4-15-5.3C1945.5,573.5,1945.2,573.2,1945.8,572.1z"/>
		</g>
		<g>
			<path fill="#ECEDED" d="M2062.3,532.3c0-0.7,0.6-1.3,1.3-1.3h6.4c0.7,0,1.3,0.6,1.3,1.3v45.2c0,0.7-0.6,1.3-1.3,1.3h-6.4
				c-0.7,0-1.3-0.6-1.3-1.3V532.3z"/>
		</g>
		<g>
			<path fill="#ECEDED" d="M2170.8,530.3c13.7,0,24.6,11,24.6,24.7s-10.9,24.5-24.6,24.5c-13.7,0-24.5-10.9-24.5-24.5
				S2157.1,530.3,2170.8,530.3z M2170.8,570.6c8.6,0,15.7-7,15.7-15.7s-7.1-15.8-15.7-15.8s-15.7,7.2-15.7,15.8
				S2162.2,570.6,2170.8,570.6z"/>
		</g>
		<g>
			<path fill="#ECEDED" d="M2256.6,531.5c0-0.7,0.6-1.2,1.3-1.2h1.7l28.4,30.2h0.1v-28.2c0-0.7,0.5-1.3,1.3-1.3h6.3
				c0.7,0,1.3,0.6,1.3,1.3v46c0,0.7-0.6,1.2-1.3,1.2h-1.6l-28.6-31.4h-0.1v29.4c0,0.7-0.5,1.3-1.3,1.3h-6.2c-0.7,0-1.3-0.6-1.3-1.3
				V531.5z"/>
		</g>
		<g>
			<path fill="#ECEDED" d="M2368.9,532.3c0-0.7,0.5-1.3,1.3-1.3h27.8c0.8,0,1.3,0.6,1.3,1.3v5.6c0,0.7-0.5,1.3-1.3,1.3h-20.2v11.2
				h16.9c0.7,0,1.3,0.6,1.3,1.3v5.7c0,0.8-0.6,1.3-1.3,1.3h-16.9v12h20.2c0.8,0,1.3,0.6,1.3,1.3v5.6c0,0.7-0.5,1.3-1.3,1.3h-27.8
				c-0.8,0-1.3-0.6-1.3-1.3V532.3z"/>
		</g>
		<g>
			<path fill="#ECEDED" d="M884.6,638.5c0-0.9,0.7-1.6,1.6-1.6h6c0.9,0,1.6,0.8,1.6,1.6v18.5l17.2-19.4c0.3-0.3,0.7-0.7,1.3-0.7h6.8
				c1.3,0,2,1.4,1.1,2.5l-17.8,20.1l19.1,22.9c0.7,0.9,0.1,2.4-1.2,2.4H913c-0.7,0-1.1-0.3-1.2-0.5l-17.8-22V683
				c0,0.9-0.8,1.6-1.6,1.6h-6c-1,0-1.6-0.8-1.6-1.6V638.5z"/>
		</g>
		<g>
			<path fill="#ECEDED" d="M1002.2,661.6l-15.6-22.8c-0.5-0.9,0-2,1.1-2h7c0.5,0,0.9,0.3,1.1,0.6l10.9,15.7l10.9-15.7
				c0.2-0.3,0.5-0.6,1.1-0.6h7c1.1,0,1.6,1.1,1.1,2l-15.8,22.8v21.8c0,0.7-0.6,1.3-1.3,1.3h-6.3c-0.8,0-1.3-0.6-1.3-1.3V661.6z"/>
		</g>
		<g>
			<path fill="#ECEDED" d="M1116.8,636.1c6.9,0,11.9,2.2,16.5,6.4c0.6,0.5,0.6,1.4,0.1,1.9l-4.2,4.3c-0.5,0.5-1.2,0.5-1.7,0
				c-2.9-2.5-6.7-4-10.5-4c-8.7,0-15.2,7.3-15.2,15.9c0,8.5,6.6,15.8,15.3,15.8c4.1,0,7.6-1.6,10.5-3.9c0.5-0.5,1.3-0.4,1.7,0
				l4.2,4.4c0.5,0.5,0.4,1.4-0.1,1.8c-4.6,4.5-10.5,6.6-16.6,6.6c-13.7,0-24.7-10.9-24.7-24.5S1103.2,636.1,1116.8,636.1z"/>
		</g>
		<g>
			<path fill="#ECEDED" d="M1218.9,636.1c13.7,0,24.6,11,24.6,24.7s-10.9,24.5-24.6,24.5c-13.7,0-24.5-10.9-24.5-24.5
				S1205.2,636.1,1218.9,636.1z M1218.9,676.5c8.6,0,15.7-7,15.7-15.7s-7.1-15.8-15.7-15.8s-15.7,7.2-15.7,15.8
				S1210.3,676.5,1218.9,676.5z"/>
		</g>
		<g>
			<path fill="#ECEDED" d="M1305.9,638.1c0-0.7,0.5-1.3,1.2-1.3h16.2c13.2,0,24,10.7,24,23.9c0,13.3-10.8,24-24,24h-16.2
				c-0.7,0-1.2-0.6-1.2-1.3V638.1z M1322.5,676.3c8.9,0,15.4-6.7,15.4-15.7c0-8.9-6.5-15.6-15.4-15.6h-7.8v31.2H1322.5z"/>
		</g>
		<g>
			<path fill="#ECEDED" d="M1417,638.1c0-0.7,0.5-1.3,1.3-1.3h27.8c0.8,0,1.3,0.6,1.3,1.3v5.6c0,0.7-0.5,1.3-1.3,1.3h-20.2v11.2
				h16.9c0.7,0,1.3,0.6,1.3,1.3v5.7c0,0.8-0.6,1.3-1.3,1.3h-16.9v12h20.2c0.8,0,1.3,0.6,1.3,1.3v5.6c0,0.7-0.5,1.3-1.3,1.3h-27.8
				c-0.8,0-1.3-0.6-1.3-1.3V638.1z"/>
		</g>
		<g>
			<path fill="#ECEDED" d="M1520.6,638.5c0-0.9,0.7-1.6,1.6-1.6h6c0.9,0,1.6,0.8,1.6,1.6v18.5l17.2-19.4c0.3-0.3,0.7-0.7,1.3-0.7
				h6.8c1.3,0,2,1.4,1.1,2.5l-17.8,20.1l19.1,22.9c0.7,0.9,0.1,2.4-1.2,2.4h-7.4c-0.7,0-1.1-0.3-1.2-0.5l-17.8-22V683
				c0,0.9-0.8,1.6-1.6,1.6h-6c-1,0-1.6-0.8-1.6-1.6V638.5z"/>
		</g>
		<g>
			<path fill="#ECEDED" d="M1628.9,638.1c0-0.7,0.5-1.3,1.3-1.3h27.8c0.8,0,1.3,0.6,1.3,1.3v5.6c0,0.7-0.5,1.3-1.3,1.3h-20.2v11.2
				h16.9c0.7,0,1.3,0.6,1.3,1.3v5.7c0,0.8-0.6,1.3-1.3,1.3h-16.9v12h20.2c0.8,0,1.3,0.6,1.3,1.3v5.6c0,0.7-0.5,1.3-1.3,1.3h-27.8
				c-0.8,0-1.3-0.6-1.3-1.3V638.1z"/>
		</g>
		<g>
			<path fill="#ECEDED" d="M1732.3,638.1c0-0.7,0.5-1.3,1.3-1.3h19.5c8.2,0,14.9,6.6,14.9,14.7c0,6.3-4.2,11.4-10.1,13.8l9.4,17.4
				c0.5,0.9,0,2-1.2,2h-7.2c-0.6,0-1-0.3-1.1-0.6l-9.1-18.1h-7.6v17.4c0,0.7-0.6,1.3-1.3,1.3h-6.3c-0.8,0-1.3-0.6-1.3-1.3V638.1z
				 M1752.3,658.6c3.6,0,6.8-3.1,6.8-7c0-3.6-3.1-6.6-6.8-6.6h-11.1v13.6H1752.3z"/>
		</g>
		<g>
			<path fill="#ECEDED" d="M1834.7,637.4c0-0.7,0.6-1.2,1.3-1.2h1.7l28.4,30.2h0.1v-28.2c0-0.7,0.5-1.3,1.3-1.3h6.3
				c0.7,0,1.3,0.6,1.3,1.3v46c0,0.7-0.6,1.2-1.3,1.2h-1.6l-28.6-31.4h-0.1v29.4c0,0.7-0.5,1.3-1.3,1.3h-6.2c-0.7,0-1.3-0.6-1.3-1.3
				V637.4z"/>
		</g>
		<g>
			<path fill="#ECEDED" d="M1949.8,638.1c0-0.7,0.5-1.3,1.3-1.3h6.3c0.7,0,1.3,0.6,1.3,1.3v38.3h17.4c0.8,0,1.3,0.6,1.3,1.3v5.6
				c0,0.7-0.5,1.3-1.3,1.3h-25c-0.8,0-1.3-0.6-1.3-1.3V638.1z"/>
		</g>
		<g>
			<path fill="#ECEDED" d="M2052.9,638.1c0-0.7,0.5-1.3,1.3-1.3h27.8c0.8,0,1.3,0.6,1.3,1.3v5.6c0,0.7-0.5,1.3-1.3,1.3h-20.2v11.2
				h16.9c0.7,0,1.3,0.6,1.3,1.3v5.7c0,0.8-0.6,1.3-1.3,1.3h-16.9v12h20.2c0.8,0,1.3,0.6,1.3,1.3v5.6c0,0.7-0.5,1.3-1.3,1.3h-27.8
				c-0.8,0-1.3-0.6-1.3-1.3V638.1z"/>
		</g>
		<g>
			<path fill="#ECEDED" d="M2148.1,682.9l21.3-46c0.2-0.4,0.5-0.8,1.2-0.8h0.7c0.7,0,1,0.3,1.2,0.8l21.1,46c0.4,0.9-0.1,1.8-1.2,1.8
				h-5.9c-1,0-1.5-0.4-2-1.4l-3.3-7.4h-20.4l-3.3,7.4c-0.3,0.7-0.9,1.4-2,1.4h-5.9C2148.3,684.7,2147.7,683.8,2148.1,682.9z
				 M2177.7,668.3l-6.8-15h-0.2l-6.7,15H2177.7z"/>
		</g>
		<g>
			<path fill="#ECEDED" d="M2257.8,638.1c0-0.7,0.5-1.3,1.2-1.3h16.2c13.2,0,24,10.7,24,23.9c0,13.3-10.8,24-24,24H2259
				c-0.7,0-1.2-0.6-1.2-1.3V638.1z M2274.4,676.3c8.9,0,15.4-6.7,15.4-15.7c0-8.9-6.5-15.6-15.4-15.6h-7.8v31.2H2274.4z"/>
		</g>
		<g>
			<path fill="#ECEDED" d="M2385.8,636.1c6.2,0,12,2.4,16.7,6.4c0.5,0.5,0.6,1.4,0.1,1.9l-4.2,4.4c-0.5,0.5-1.2,0.5-1.8,0
				c-2.9-2.6-6.6-4-10.3-4c-8.5,0-15.3,7.3-15.3,15.9c0,8.5,6.8,15.7,15.4,15.7c3.8,0,6.8-1.2,8.1-1.7v-5.8h-5.5
				c-0.8,0-1.3-0.5-1.3-1.2v-5.4c0-0.8,0.5-1.3,1.3-1.3h13.1c0.7,0,1.2,0.6,1.2,1.3v17.5c0,0.5-0.3,0.9-0.5,1.1c0,0-7,4.4-16.9,4.4
				c-13.6,0-24.5-10.8-24.5-24.5S2372.2,636.1,2385.8,636.1z"/>
		</g>
		<g>
			<path fill="#ECEDED" d="M886.8,110.5c0-0.7,0.5-1.3,1.3-1.3h16.1c8.4,0,15.3,6.8,15.3,15.1c0,8.5-6.9,15.4-15.2,15.4h-8.5v16.1
				c0,0.7-0.6,1.3-1.3,1.3h-6.3c-0.8,0-1.3-0.6-1.3-1.3V110.5z M903.6,131.3c3.8,0,7-3.1,7-7.1c0-3.8-3.2-6.6-7-6.6h-7.9v13.7H903.6
				z"/>
		</g>
		<g>
			<path fill="#ECEDED" d="M995.8,110.5c0-0.7,0.5-1.3,1.3-1.3h6.3c0.7,0,1.3,0.6,1.3,1.3v38.3h17.4c0.8,0,1.3,0.6,1.3,1.3v5.6
				c0,0.7-0.5,1.3-1.3,1.3h-25c-0.8,0-1.3-0.6-1.3-1.3V110.5z"/>
		</g>
		<g>
			<path fill="#ECEDED" d="M1112.8,108.5c13.7,0,24.6,11,24.6,24.7s-10.9,24.5-24.6,24.5s-24.5-10.9-24.5-24.5
				S1099.1,108.5,1112.8,108.5z M1112.8,148.8c8.6,0,15.7-7,15.7-15.7s-7.1-15.8-15.7-15.8s-15.7,7.2-15.7,15.8
				S1104.2,148.8,1112.8,148.8z"/>
		</g>
		<g>
			<path fill="#ECEDED" d="M1214.4,117.4h-10.5c-0.8,0-1.3-0.6-1.3-1.3v-5.6c0-0.7,0.5-1.3,1.3-1.3h29.9c0.8,0,1.3,0.6,1.3,1.3v5.6
				c0,0.7-0.5,1.3-1.3,1.3h-10.5v38.3c0,0.7-0.6,1.3-1.3,1.3h-6.4c-0.7,0-1.3-0.6-1.3-1.3V117.4z"/>
		</g>
		<g>
			<path fill="#ECEDED" d="M1311,110.5c0-0.7,0.5-1.3,1.3-1.3h27.8c0.8,0,1.3,0.6,1.3,1.3v5.6c0,0.7-0.5,1.3-1.3,1.3h-20.2v11.2
				h16.9c0.7,0,1.3,0.6,1.3,1.3v5.7c0,0.8-0.6,1.3-1.3,1.3h-16.9v12h20.2c0.8,0,1.3,0.6,1.3,1.3v5.6c0,0.7-0.5,1.3-1.3,1.3h-27.8
				c-0.8,0-1.3-0.6-1.3-1.3V110.5z"/>
		</g>
		<g>
			<path fill="#ECEDED" d="M1411.9,110.5c0-0.7,0.5-1.3,1.2-1.3h16.2c13.2,0,24,10.7,24,23.9c0,13.3-10.8,24-24,24h-16.2
				c-0.7,0-1.2-0.6-1.2-1.3V110.5z M1428.5,148.7c8.9,0,15.4-6.7,15.4-15.7c0-8.9-6.5-15.6-15.4-15.6h-7.8v31.2H1428.5z"/>
		</g>
		<g>
			<path fill="#ECEDED" d="M1522.9,110.5c0-0.7,0.5-1.3,1.3-1.3h27.8c0.8,0,1.3,0.6,1.3,1.3v5.6c0,0.7-0.5,1.3-1.3,1.3h-20.2v11.2
				h16.9c0.7,0,1.3,0.6,1.3,1.3v5.7c0,0.8-0.6,1.3-1.3,1.3h-16.9v12h20.2c0.8,0,1.3,0.6,1.3,1.3v5.6c0,0.7-0.5,1.3-1.3,1.3h-27.8
				c-0.8,0-1.3-0.6-1.3-1.3V110.5z"/>
		</g>
		<g>
			<path fill="#ECEDED" d="M1628.8,110.5c0-0.7,0.5-1.3,1.3-1.3h16.1c8.4,0,15.3,6.8,15.3,15.1c0,8.5-6.9,15.4-15.2,15.4h-8.5v16.1
				c0,0.7-0.6,1.3-1.3,1.3h-6.3c-0.8,0-1.3-0.6-1.3-1.3V110.5z M1645.6,131.3c3.8,0,7-3.1,7-7.1c0-3.8-3.2-6.6-7-6.6h-7.9v13.7
				H1645.6z"/>
		</g>
		<g>
			<path fill="#ECEDED" d="M1744.3,110.5c0-0.7,0.6-1.3,1.3-1.3h6.4c0.7,0,1.3,0.6,1.3,1.3v45.2c0,0.7-0.6,1.3-1.3,1.3h-6.4
				c-0.7,0-1.3-0.6-1.3-1.3V110.5z"/>
		</g>
		<g>
			<path fill="#ECEDED" d="M1838.2,154.5l20.4-36.8v-0.3h-17.1c-0.7,0-1.3-0.6-1.3-1.3v-5.7c0-0.7,0.6-1.3,1.3-1.3h28.6
				c0.7,0,1.3,0.6,1.3,1.3v0.9l-20.1,37.2v0.1h17.4c0.8,0,1.3,0.6,1.3,1.3v5.7c0,0.7-0.5,1.3-1.3,1.3h-29.2c-0.7,0-1.3-0.6-1.3-1.3
				V154.5z"/>
		</g>
		<g>
			<path fill="#ECEDED" d="M1944.2,154.5l20.4-36.8v-0.3h-17.1c-0.7,0-1.3-0.6-1.3-1.3v-5.7c0-0.7,0.6-1.3,1.3-1.3h28.6
				c0.7,0,1.3,0.6,1.3,1.3v0.9l-20.1,37.2v0.1h17.4c0.8,0,1.3,0.6,1.3,1.3v5.7c0,0.7-0.5,1.3-1.3,1.3h-29.2c-0.7,0-1.3-0.6-1.3-1.3
				V154.5z"/>
		</g>
		<g>
			<path fill="#ECEDED" d="M2044.1,155.2l21.3-46c0.2-0.4,0.5-0.8,1.2-0.8h0.7c0.7,0,1,0.3,1.2,0.8l21.1,46c0.4,0.9-0.1,1.8-1.2,1.8
				h-5.9c-1,0-1.5-0.4-2-1.4l-3.3-7.4h-20.4l-3.3,7.4c-0.3,0.7-0.9,1.4-2,1.4h-5.9C2044.3,157,2043.7,156.1,2044.1,155.2z
				 M2073.6,140.7l-6.8-15h-0.2l-6.7,15H2073.6z"/>
		</g>
		<g>
			<path fill="#ECEDED" d="M2155.7,150.3l2.5-4.2c0.5-1,1.7-1,2.3-0.5c0.3,0.2,5.9,4.2,10.3,4.2c3.6,0,6.2-2.3,6.2-5.3
				c0-3.5-2.9-5.9-8.7-8.2c-6.4-2.6-12.8-6.7-12.8-14.8c0-6.1,4.5-13.1,15.4-13.1c7,0,12.3,3.6,13.7,4.6c0.7,0.4,0.9,1.6,0.4,2.3
				l-2.6,3.9c-0.5,0.8-1.6,1.4-2.4,0.8c-0.5-0.3-5.7-3.8-9.5-3.8c-3.9,0-6,2.6-6,4.8c0,3.2,2.5,5.4,8.1,7.7
				c6.6,2.7,14.3,6.6,14.3,15.4c0,7-6.1,13.5-15.7,13.5c-8.6,0-13.7-4-15-5.3C2155.4,151.8,2155.1,151.4,2155.7,150.3z"/>
		</g>
		<g>
			<path fill="#ECEDED" d="M2262.9,110.5c0-0.7,0.5-1.3,1.3-1.3h27.8c0.8,0,1.3,0.6,1.3,1.3v5.6c0,0.7-0.5,1.3-1.3,1.3h-20.2v11.2
				h16.9c0.7,0,1.3,0.6,1.3,1.3v5.7c0,0.8-0.6,1.3-1.3,1.3h-16.9v12h20.2c0.8,0,1.3,0.6,1.3,1.3v5.6c0,0.7-0.5,1.3-1.3,1.3h-27.8
				c-0.8,0-1.3-0.6-1.3-1.3V110.5z"/>
		</g>
		<g>
			<path fill="#ECEDED" d="M2363.8,110.5c0-0.7,0.5-1.3,1.2-1.3h16.2c13.2,0,24,10.7,24,23.9c0,13.3-10.8,24-24,24H2365
				c-0.7,0-1.2-0.6-1.2-1.3V110.5z M2380.4,148.7c8.9,0,15.4-6.7,15.4-15.7c0-8.9-6.5-15.6-15.4-15.6h-7.8v31.2H2380.4z"/>
		</g>
		<g>
			<path fill="#ECEDED" d="M889.8,213.8c0-0.7,0.5-1.3,1.3-1.3h6.3c0.7,0,1.3,0.6,1.3,1.3v38.3h17.4c0.8,0,1.3,0.6,1.3,1.3v5.6
				c0,0.7-0.5,1.3-1.3,1.3h-25c-0.8,0-1.3-0.6-1.3-1.3V213.8z"/>
		</g>
		<g>
			<path fill="#ECEDED" d="M984.1,258.6l21.3-46c0.2-0.4,0.5-0.8,1.2-0.8h0.7c0.7,0,1,0.3,1.2,0.8l21.1,46c0.4,0.9-0.1,1.8-1.2,1.8
				h-5.9c-1,0-1.5-0.4-2-1.4l-3.3-7.4h-20.4l-3.3,7.4c-0.3,0.7-0.9,1.4-2,1.4h-5.9C984.3,260.3,983.7,259.5,984.1,258.6z
				 M1013.7,244l-6.8-15h-0.2l-6.7,15H1013.7z"/>
		</g>
		<g>
			<path fill="#ECEDED" d="M1108.2,237.3l-15.6-22.8c-0.5-0.9,0-2,1.1-2h7c0.5,0,0.9,0.3,1.1,0.6l10.9,15.7l10.9-15.7
				c0.2-0.3,0.5-0.6,1.1-0.6h7c1.1,0,1.6,1.1,1.1,2l-15.8,22.8V259c0,0.7-0.6,1.3-1.3,1.3h-6.3c-0.8,0-1.3-0.6-1.3-1.3V237.3z"/>
		</g>
		<g>
			<path fill="#ECEDED" d="M1202.7,214.1c0-0.9,0.7-1.6,1.6-1.6h6c0.9,0,1.6,0.8,1.6,1.6v18.5l17.2-19.4c0.3-0.3,0.7-0.7,1.3-0.7
				h6.8c1.3,0,2,1.4,1.1,2.5l-17.8,20.1l19.1,22.9c0.7,0.9,0.1,2.4-1.2,2.4h-7.4c-0.7,0-1.1-0.3-1.2-0.5l-17.8-22v20.8
				c0,0.9-0.8,1.6-1.6,1.6h-6c-1,0-1.6-0.8-1.6-1.6V214.1z"/>
		</g>
		<g>
			<path fill="#ECEDED" d="M1311,213.8c0-0.7,0.5-1.3,1.3-1.3h27.8c0.8,0,1.3,0.6,1.3,1.3v5.6c0,0.7-0.5,1.3-1.3,1.3h-20.2v11.2
				h16.9c0.7,0,1.3,0.6,1.3,1.3v5.7c0,0.8-0.6,1.3-1.3,1.3h-16.9v12h20.2c0.8,0,1.3,0.6,1.3,1.3v5.6c0,0.7-0.5,1.3-1.3,1.3h-27.8
				c-0.8,0-1.3-0.6-1.3-1.3V213.8z"/>
		</g>
		<g>
			<path fill="#ECEDED" d="M1417.8,213.8c0-0.7,0.5-1.3,1.3-1.3h27.8c0.8,0,1.3,0.6,1.3,1.3v5.6c0,0.7-0.5,1.3-1.3,1.3h-20.2v12.8
				h16.9c0.7,0,1.3,0.6,1.3,1.3v5.6c0,0.7-0.6,1.3-1.3,1.3h-16.9V259c0,0.7-0.6,1.3-1.3,1.3h-6.3c-0.8,0-1.3-0.6-1.3-1.3V213.8z"/>
		</g>
		<g>
			<path fill="#ECEDED" d="M1532.3,213.8c0-0.7,0.6-1.3,1.3-1.3h6.4c0.7,0,1.3,0.6,1.3,1.3V259c0,0.7-0.6,1.3-1.3,1.3h-6.4
				c-0.7,0-1.3-0.6-1.3-1.3V213.8z"/>
		</g>
		<g>
			<path fill="#ECEDED" d="M1622.6,213c0-0.7,0.6-1.2,1.3-1.2h1.7L1654,242h0.1v-28.2c0-0.7,0.5-1.3,1.3-1.3h6.3
				c0.7,0,1.3,0.6,1.3,1.3v46c0,0.7-0.6,1.2-1.3,1.2h-1.6l-28.6-31.4h-0.1V259c0,0.7-0.5,1.3-1.3,1.3h-6.2c-0.7,0-1.3-0.6-1.3-1.3
				V213z"/>
		</g>
		<g>
			<path fill="#ECEDED" d="M1729.8,213.8c0-0.7,0.5-1.3,1.2-1.3h16.2c13.2,0,24,10.7,24,23.9c0,13.3-10.8,24-24,24H1731
				c-0.7,0-1.2-0.6-1.2-1.3V213.8z M1746.4,252c8.9,0,15.4-6.7,15.4-15.7c0-8.9-6.5-15.6-15.4-15.6h-7.8V252H1746.4z"/>
		</g>
		<g>
			<path fill="#ECEDED" d="M1836.2,212.8c0.1-0.5,0.5-1,1.2-1h1.1c0.5,0,1,0.3,1.2,0.7l15,32.3c0.1,0,0.1,0,0.2,0l15-32.3
				c0.2-0.4,0.5-0.7,1.2-0.7h1.1c0.8,0,1.2,0.5,1.2,1l8.1,45.9c0.2,1-0.3,1.6-1.2,1.6h-6.2c-0.6,0-1.2-0.5-1.3-1l-4-25.9
				c-0.1,0-0.2,0-0.2,0l-12,26.9c-0.1,0.4-0.5,0.8-1.2,0.8h-1.2c-0.6,0-1-0.3-1.2-0.8l-12.1-26.9c0,0-0.1,0-0.2,0l-4,25.9
				c-0.1,0.5-0.6,1-1.2,1h-6.2c-0.9,0-1.4-0.6-1.3-1.6L1836.2,212.8z"/>
		</g>
		<g>
			<path fill="#ECEDED" d="M1947,213.8c0-0.7,0.5-1.3,1.3-1.3h27.8c0.8,0,1.3,0.6,1.3,1.3v5.6c0,0.7-0.5,1.3-1.3,1.3h-20.2v11.2
				h16.9c0.7,0,1.3,0.6,1.3,1.3v5.7c0,0.8-0.6,1.3-1.3,1.3h-16.9v12h20.2c0.8,0,1.3,0.6,1.3,1.3v5.6c0,0.7-0.5,1.3-1.3,1.3h-27.8
				c-0.8,0-1.3-0.6-1.3-1.3V213.8z"/>
		</g>
		<g>
			<path fill="#ECEDED" d="M2052.2,254.3l3.6-3.6c0.8-0.7,1.4-0.5,2.1,0.1c0.9,1,2.3,2.2,4.5,2.2c2.7,0,5.5-2.2,5.5-6.9v-32.3
				c0-0.7,0.5-1.3,1.3-1.3h6.4c0.8,0,1.3,0.6,1.3,1.3v32.3c0,9.5-6.4,15-14.4,15c-5.9,0-9.2-3.6-10.4-5
				C2051.7,255.5,2051.8,254.8,2052.2,254.3z"/>
		</g>
		<g>
			<path fill="#ECEDED" d="M2159.8,213.8c0-0.7,0.5-1.3,1.3-1.3h6.3c0.7,0,1.3,0.6,1.3,1.3v38.3h17.4c0.8,0,1.3,0.6,1.3,1.3v5.6
				c0,0.7-0.5,1.3-1.3,1.3h-25c-0.8,0-1.3-0.6-1.3-1.3V213.8z"/>
		</g>
		<g>
			<path fill="#ECEDED" d="M2262.9,213.8c0-0.7,0.5-1.3,1.3-1.3h27.8c0.8,0,1.3,0.6,1.3,1.3v5.6c0,0.7-0.5,1.3-1.3,1.3h-20.2v11.2
				h16.9c0.7,0,1.3,0.6,1.3,1.3v5.7c0,0.8-0.6,1.3-1.3,1.3h-16.9v12h20.2c0.8,0,1.3,0.6,1.3,1.3v5.6c0,0.7-0.5,1.3-1.3,1.3h-27.8
				c-0.8,0-1.3-0.6-1.3-1.3V213.8z"/>
		</g>
		<g>
			<path fill="#ECEDED" d="M2366.3,213.8c0-0.7,0.5-1.3,1.3-1.3h19.5c8.2,0,14.9,6.6,14.9,14.7c0,6.3-4.2,11.4-10.1,13.8l9.4,17.4
				c0.5,0.9,0,2-1.2,2h-7.2c-0.6,0-1-0.3-1.1-0.6l-9.1-18.1h-7.6V259c0,0.7-0.6,1.3-1.3,1.3h-6.3c-0.8,0-1.3-0.6-1.3-1.3V213.8z
				 M2386.3,234.3c3.6,0,6.8-3.1,6.8-7c0-3.6-3.1-6.6-6.8-6.6h-11.1v13.6H2386.3z"/>
		</g>
		<g>
			<path fill="#ECEDED" d="M904.8,317.7c6.9,0,11.9,2.2,16.5,6.4c0.6,0.5,0.6,1.4,0.1,1.9l-4.2,4.3c-0.5,0.5-1.2,0.5-1.7,0
				c-2.9-2.5-6.7-4-10.5-4c-8.7,0-15.2,7.3-15.2,15.9c0,8.5,6.6,15.8,15.3,15.8c4.1,0,7.6-1.6,10.5-3.9c0.5-0.5,1.3-0.4,1.7,0
				l4.2,4.4c0.5,0.5,0.4,1.4-0.1,1.8c-4.6,4.5-10.5,6.6-16.6,6.6c-13.7,0-24.7-10.9-24.7-24.5S891.2,317.7,904.8,317.7z"/>
		</g>
		<g>
			<path fill="#ECEDED" d="M992.8,319.7c0-0.7,0.5-1.3,1.3-1.3h16.1c8.4,0,15.3,6.8,15.3,15.1c0,8.5-6.9,15.4-15.2,15.4h-8.5v16.1
				c0,0.7-0.6,1.3-1.3,1.3h-6.3c-0.8,0-1.3-0.6-1.3-1.3V319.7z M1009.6,340.5c3.8,0,7-3.1,7-7.1c0-3.8-3.2-6.6-7-6.6h-7.9v13.7
				H1009.6z"/>
		</g>
		<g>
			<path fill="#ECEDED" d="M1116.8,317.7c6.9,0,11.9,2.2,16.5,6.4c0.6,0.5,0.6,1.4,0.1,1.9l-4.2,4.3c-0.5,0.5-1.2,0.5-1.7,0
				c-2.9-2.5-6.7-4-10.5-4c-8.7,0-15.2,7.3-15.2,15.9c0,8.5,6.6,15.8,15.3,15.8c4.1,0,7.6-1.6,10.5-3.9c0.5-0.5,1.3-0.4,1.7,0
				l4.2,4.4c0.5,0.5,0.4,1.4-0.1,1.8c-4.6,4.5-10.5,6.6-16.6,6.6c-13.7,0-24.7-10.9-24.7-24.5S1103.2,317.7,1116.8,317.7z"/>
		</g>
		<g>
			<path fill="#ECEDED" d="M1199.8,319.7c0-0.7,0.6-1.3,1.3-1.3h6.5c0.8,0,1.3,0.6,1.3,1.3v28c0,5.8,4,10.4,9.9,10.4
				c5.9,0,10-4.6,10-10.3v-28c0-0.7,0.5-1.3,1.3-1.3h6.5c0.7,0,1.3,0.6,1.3,1.3v28.4c0,10.4-8.3,18.8-19.1,18.8
				c-10.7,0-19-8.4-19-18.8V319.7z"/>
		</g>
		<g>
			<path fill="#ECEDED" d="M1310,319.7c0-0.7,0.5-1.3,1.3-1.3h15.7c8.1,0,14.4,5.5,14.4,12.6c0,5.3-4.3,9.4-7.5,10.9
				c3.6,1.2,8.9,4.9,8.9,11.1c0,7.7-6.6,13.2-14.9,13.2h-16.5c-0.8,0-1.3-0.6-1.3-1.3V319.7z M1326.1,338.5c3.5,0,5.9-2.7,5.9-6.2
				c0-3.4-2.4-5.8-5.9-5.8h-7.3v12H1326.1z M1327.1,358.1c3.4,0,6.2-2.7,6.2-6.2c0-3.4-3.4-5.9-7-5.9h-7.4v12.2H1327.1z"/>
		</g>
		<g>
			<path fill="#ECEDED" d="M1426.3,343.2l-15.6-22.8c-0.5-0.9,0-2,1.1-2h7c0.5,0,0.9,0.3,1.1,0.6l10.9,15.7l10.9-15.7
				c0.2-0.3,0.5-0.6,1.1-0.6h7c1.1,0,1.6,1.1,1.1,2l-15.8,22.8v21.8c0,0.7-0.6,1.3-1.3,1.3h-6.3c-0.8,0-1.3-0.6-1.3-1.3V343.2z"/>
		</g>
		<g>
			<path fill="#ECEDED" d="M1532.3,326.6h-10.5c-0.8,0-1.3-0.6-1.3-1.3v-5.6c0-0.7,0.5-1.3,1.3-1.3h29.9c0.8,0,1.3,0.6,1.3,1.3v5.6
				c0,0.7-0.5,1.3-1.3,1.3h-10.5v38.3c0,0.7-0.6,1.3-1.3,1.3h-6.4c-0.7,0-1.3-0.6-1.3-1.3V326.6z"/>
		</g>
		<g>
			<path fill="#ECEDED" d="M1628.9,319.7c0-0.7,0.5-1.3,1.3-1.3h27.8c0.8,0,1.3,0.6,1.3,1.3v5.6c0,0.7-0.5,1.3-1.3,1.3h-20.2v11.2
				h16.9c0.7,0,1.3,0.6,1.3,1.3v5.7c0,0.8-0.6,1.3-1.3,1.3h-16.9v12h20.2c0.8,0,1.3,0.6,1.3,1.3v5.6c0,0.7-0.5,1.3-1.3,1.3h-27.8
				c-0.8,0-1.3-0.6-1.3-1.3V319.7z"/>
		</g>
		<g>
			<path fill="#ECEDED" d="M1734.9,319.7c0-0.7,0.5-1.3,1.3-1.3h27.8c0.8,0,1.3,0.6,1.3,1.3v5.6c0,0.7-0.5,1.3-1.3,1.3h-20.2v11.2
				h16.9c0.7,0,1.3,0.6,1.3,1.3v5.7c0,0.8-0.6,1.3-1.3,1.3h-16.9v12h20.2c0.8,0,1.3,0.6,1.3,1.3v5.6c0,0.7-0.5,1.3-1.3,1.3h-27.8
				c-0.8,0-1.3-0.6-1.3-1.3V319.7z"/>
		</g>
		<g>
			<path fill="#ECEDED" d="M1832.2,364.4l21.3-46c0.2-0.4,0.5-0.8,1.2-0.8h0.7c0.7,0,1,0.3,1.2,0.8l21.1,46c0.4,0.9-0.1,1.8-1.2,1.8
				h-5.9c-1,0-1.5-0.4-2-1.4l-3.3-7.4h-20.4l-3.3,7.4c-0.3,0.7-0.9,1.4-2,1.4h-5.9C1832.3,366.2,1831.8,365.3,1832.2,364.4z
				 M1861.7,349.9l-6.8-15h-0.2l-6.7,15H1861.7z"/>
		</g>
		<g>
			<path fill="#ECEDED" d="M1938.2,320.1c-0.4-0.9,0.1-1.8,1.2-1.8h7c0.6,0,1,0.4,1.2,0.8l13.1,29.4h0.5l13.1-29.4
				c0.1-0.3,0.5-0.8,1.2-0.8h7c1,0,1.6,0.9,1.2,1.8l-21.2,46c-0.2,0.4-0.5,0.8-1.2,0.8h-0.7c-0.6,0-1-0.3-1.2-0.8L1938.2,320.1z"/>
		</g>
		<g>
			<path fill="#ECEDED" d="M2055.7,319.7c0-0.7,0.5-1.3,1.3-1.3h6.3c0.7,0,1.3,0.6,1.3,1.3V358h17.4c0.8,0,1.3,0.6,1.3,1.3v5.6
				c0,0.7-0.5,1.3-1.3,1.3h-25c-0.8,0-1.3-0.6-1.3-1.3V319.7z"/>
		</g>
		<g>
			<path fill="#ECEDED" d="M2166.3,319.7c0-0.7,0.6-1.3,1.3-1.3h6.4c0.7,0,1.3,0.6,1.3,1.3v45.2c0,0.7-0.6,1.3-1.3,1.3h-6.4
				c-0.7,0-1.3-0.6-1.3-1.3V319.7z"/>
		</g>
		<g>
			<path fill="#ECEDED" d="M2262.9,319.7c0-0.7,0.5-1.3,1.3-1.3h27.8c0.8,0,1.3,0.6,1.3,1.3v5.6c0,0.7-0.5,1.3-1.3,1.3h-20.2v11.2
				h16.9c0.7,0,1.3,0.6,1.3,1.3v5.7c0,0.8-0.6,1.3-1.3,1.3h-16.9v12h20.2c0.8,0,1.3,0.6,1.3,1.3v5.6c0,0.7-0.5,1.3-1.3,1.3h-27.8
				c-0.8,0-1.3-0.6-1.3-1.3V319.7z"/>
		</g>
		<g>
			<path fill="#ECEDED" d="M2378.3,319.7c0-0.7,0.6-1.3,1.3-1.3h6.4c0.7,0,1.3,0.6,1.3,1.3v45.2c0,0.7-0.6,1.3-1.3,1.3h-6.4
				c-0.7,0-1.3-0.6-1.3-1.3V319.7z"/>
		</g>
		<g>
			<path fill="#ECEDED" d="M6.3,425.9c0-0.7,0.5-1.3,1.3-1.3h19.5c8.2,0,14.9,6.6,14.9,14.7c0,6.3-4.2,11.4-10.1,13.8l9.4,17.4
				c0.5,0.9,0,2-1.2,2h-7.2c-0.6,0-1-0.3-1.1-0.6l-9.1-18.1h-7.6v17.4c0,0.7-0.6,1.3-1.3,1.3H7.6c-0.8,0-1.3-0.6-1.3-1.3V425.9z
				 M26.3,446.4c3.6,0,6.8-3.1,6.8-7c0-3.6-3.1-6.6-6.8-6.6H15.2v13.6H26.3z"/>
		</g>
		<g>
			<path fill="#ECEDED" d="M109.8,425.9c0-0.7,0.5-1.3,1.2-1.3h16.2c13.2,0,24,10.7,24,23.9c0,13.3-10.8,24-24,24H111
				c-0.7,0-1.2-0.6-1.2-1.3V425.9z M126.4,464.1c8.9,0,15.4-6.7,15.4-15.7c0-8.9-6.5-15.6-15.4-15.6h-7.8v31.2H126.4z"/>
		</g>
		<g>
			<path fill="#ECEDED" d="M230.4,432.8h-10.5c-0.8,0-1.3-0.6-1.3-1.3v-5.6c0-0.7,0.5-1.3,1.3-1.3h29.9c0.8,0,1.3,0.6,1.3,1.3v5.6
				c0,0.7-0.5,1.3-1.3,1.3h-10.5v38.3c0,0.7-0.6,1.3-1.3,1.3h-6.4c-0.7,0-1.3-0.6-1.3-1.3V432.8z"/>
		</g>
		<g>
			<path fill="#ECEDED" d="M327,425.9c0-0.7,0.5-1.3,1.3-1.3h27.8c0.8,0,1.3,0.6,1.3,1.3v5.6c0,0.7-0.5,1.3-1.3,1.3h-20.2V444h16.9
				c0.7,0,1.3,0.6,1.3,1.3v5.7c0,0.8-0.6,1.3-1.3,1.3h-16.9v12h20.2c0.8,0,1.3,0.6,1.3,1.3v5.6c0,0.7-0.5,1.3-1.3,1.3h-27.8
				c-0.8,0-1.3-0.6-1.3-1.3V425.9z"/>
		</g>
		<g>
			<path fill="#ECEDED" d="M22.8,530.3c13.7,0,24.6,11,24.6,24.7s-10.9,24.5-24.6,24.5s-24.5-10.9-24.5-24.5S9.1,530.3,22.8,530.3z
				 M22.8,570.6c8.6,0,15.7-7,15.7-15.7s-7.1-15.8-15.7-15.8s-15.7,7.2-15.7,15.8S14.2,570.6,22.8,570.6z"/>
		</g>
		<g>
			<path fill="#ECEDED" d="M108.6,531.5c0-0.7,0.6-1.2,1.3-1.2h1.7l28.4,30.2h0.1v-28.2c0-0.7,0.5-1.3,1.3-1.3h6.3
				c0.7,0,1.3,0.6,1.3,1.3v46c0,0.7-0.6,1.2-1.3,1.2H146l-28.6-31.4h-0.1v29.4c0,0.7-0.5,1.3-1.3,1.3h-6.2c-0.7,0-1.3-0.6-1.3-1.3
				V531.5z"/>
		</g>
		<g>
			<path fill="#ECEDED" d="M237.9,530.3c6.2,0,12,2.4,16.7,6.4c0.5,0.5,0.6,1.4,0.1,1.9l-4.2,4.4c-0.5,0.5-1.2,0.5-1.8,0
				c-2.9-2.6-6.6-4-10.3-4c-8.5,0-15.3,7.3-15.3,15.9c0,8.5,6.8,15.7,15.4,15.7c3.8,0,6.8-1.2,8.1-1.7V563H241
				c-0.8,0-1.3-0.5-1.3-1.2v-5.4c0-0.8,0.5-1.3,1.3-1.3h13.1c0.7,0,1.2,0.6,1.2,1.3v17.5c0,0.5-0.3,0.9-0.5,1.1c0,0-7,4.4-16.9,4.4
				c-13.6,0-24.5-10.8-24.5-24.5S224.3,530.3,237.9,530.3z"/>
		</g>
		<g>
			<path fill="#ECEDED" d="M318.2,577l21.3-46c0.2-0.4,0.5-0.8,1.2-0.8h0.7c0.7,0,1,0.3,1.2,0.8l21.1,46c0.4,0.9-0.1,1.8-1.2,1.8
				h-5.9c-1,0-1.5-0.4-2-1.4l-3.3-7.4h-20.4l-3.3,7.4c-0.3,0.7-0.9,1.4-2,1.4h-5.9C318.3,578.8,317.8,577.9,318.2,577z M347.7,562.5
				l-6.8-15h-0.2l-6.7,15H347.7z"/>
		</g>
		<g>
			<path fill="#ECEDED" d="M26.8,636.1c6.9,0,11.9,2.2,16.5,6.4c0.6,0.5,0.6,1.4,0.1,1.9l-4.2,4.3c-0.5,0.5-1.2,0.5-1.7,0
				c-2.9-2.5-6.7-4-10.5-4c-8.7,0-15.2,7.3-15.2,15.9c0,8.5,6.6,15.8,15.3,15.8c4.1,0,7.6-1.6,10.5-3.9c0.5-0.5,1.3-0.4,1.7,0
				l4.2,4.4c0.5,0.5,0.4,1.4-0.1,1.8c-4.6,4.5-10.5,6.6-16.6,6.6c-13.7,0-24.7-10.9-24.7-24.5S13.2,636.1,26.8,636.1z"/>
		</g>
		<g>
			<path fill="#ECEDED" d="M114.9,638.1c0-0.7,0.5-1.3,1.3-1.3H144c0.8,0,1.3,0.6,1.3,1.3v5.6c0,0.7-0.5,1.3-1.3,1.3h-20.2v11.2
				h16.9c0.7,0,1.3,0.6,1.3,1.3v5.7c0,0.8-0.6,1.3-1.3,1.3h-16.9v12H144c0.8,0,1.3,0.6,1.3,1.3v5.6c0,0.7-0.5,1.3-1.3,1.3h-27.8
				c-0.8,0-1.3-0.6-1.3-1.3V638.1z"/>
		</g>
		<g>
			<path fill="#ECEDED" d="M216.2,637.2c0.1-0.5,0.5-1,1.2-1h1.1c0.5,0,1,0.3,1.2,0.7l15,32.3c0.1,0,0.1,0,0.2,0l15-32.3
				c0.2-0.4,0.5-0.7,1.2-0.7h1.1c0.8,0,1.2,0.5,1.2,1l8.1,45.9c0.2,1-0.3,1.6-1.2,1.6h-6.2c-0.6,0-1.2-0.5-1.3-1l-4-25.9
				c-0.1,0-0.2,0-0.2,0l-12,26.9c-0.1,0.4-0.5,0.8-1.2,0.8h-1.2c-0.6,0-1-0.3-1.2-0.8L221,657.7c0,0-0.1,0-0.2,0l-4,25.9
				c-0.1,0.5-0.6,1-1.2,1h-6.2c-0.9,0-1.4-0.6-1.3-1.6L216.2,637.2z"/>
		</g>
		<g>
			<path fill="#ECEDED" d="M324.3,638.1c0-0.7,0.5-1.3,1.3-1.3h19.5c8.2,0,14.9,6.6,14.9,14.7c0,6.3-4.2,11.4-10.1,13.8l9.4,17.4
				c0.5,0.9,0,2-1.2,2H351c-0.6,0-1-0.3-1.1-0.6l-9.1-18.1h-7.6v17.4c0,0.7-0.6,1.3-1.3,1.3h-6.3c-0.8,0-1.3-0.6-1.3-1.3V638.1z
				 M344.4,658.6c3.6,0,6.8-3.1,6.8-7c0-3.6-3.1-6.6-6.8-6.6h-11.1v13.6H344.4z"/>
		</g>
		<g>
			<path fill="#ECEDED" d="M7.7,150.3l2.5-4.2c0.5-1,1.7-1,2.3-0.5c0.3,0.2,5.9,4.2,10.3,4.2c3.6,0,6.2-2.3,6.2-5.3
				c0-3.5-2.9-5.9-8.7-8.2c-6.4-2.6-12.8-6.7-12.8-14.8c0-6.1,4.5-13.1,15.4-13.1c7,0,12.3,3.6,13.7,4.6c0.7,0.4,0.9,1.6,0.4,2.3
				l-2.6,3.9c-0.5,0.8-1.6,1.4-2.4,0.8c-0.5-0.3-5.7-3.8-9.5-3.8c-3.9,0-6,2.6-6,4.8c0,3.2,2.5,5.4,8.1,7.7
				c6.6,2.7,14.3,6.6,14.3,15.4c0,7-6.1,13.5-15.7,13.5c-8.6,0-13.7-4-15-5.3C7.4,151.8,7.1,151.4,7.7,150.3z"/>
		</g>
		<g>
			<path fill="#ECEDED" d="M117.8,110.5c0-0.7,0.5-1.3,1.3-1.3h6.3c0.7,0,1.3,0.6,1.3,1.3v38.3h17.4c0.8,0,1.3,0.6,1.3,1.3v5.6
				c0,0.7-0.5,1.3-1.3,1.3h-25c-0.8,0-1.3-0.6-1.3-1.3V110.5z"/>
		</g>
		<g>
			<path fill="#ECEDED" d="M221,110.5c0-0.7,0.5-1.3,1.3-1.3h27.8c0.8,0,1.3,0.6,1.3,1.3v5.6c0,0.7-0.5,1.3-1.3,1.3h-20.2v11.2h16.9
				c0.7,0,1.3,0.6,1.3,1.3v5.7c0,0.8-0.6,1.3-1.3,1.3h-16.9v12h20.2c0.8,0,1.3,0.6,1.3,1.3v5.6c0,0.7-0.5,1.3-1.3,1.3h-27.8
				c-0.8,0-1.3-0.6-1.3-1.3V110.5z"/>
		</g>
		<g>
			<path fill="#ECEDED" d="M327,110.5c0-0.7,0.5-1.3,1.3-1.3h27.8c0.8,0,1.3,0.6,1.3,1.3v5.6c0,0.7-0.5,1.3-1.3,1.3h-20.2v11.2h16.9
				c0.7,0,1.3,0.6,1.3,1.3v5.7c0,0.8-0.6,1.3-1.3,1.3h-16.9v12h20.2c0.8,0,1.3,0.6,1.3,1.3v5.6c0,0.7-0.5,1.3-1.3,1.3h-27.8
				c-0.8,0-1.3-0.6-1.3-1.3V110.5z"/>
		</g>
		<g>
			<path fill="#ECEDED" d="M8.9,213.8c0-0.7,0.5-1.3,1.3-1.3H38c0.8,0,1.3,0.6,1.3,1.3v5.6c0,0.7-0.5,1.3-1.3,1.3H17.8v11.2h16.9
				c0.7,0,1.3,0.6,1.3,1.3v5.7c0,0.8-0.6,1.3-1.3,1.3H17.8v12H38c0.8,0,1.3,0.6,1.3,1.3v5.6c0,0.7-0.5,1.3-1.3,1.3H10.2
				c-0.8,0-1.3-0.6-1.3-1.3V213.8z"/>
		</g>
		<g>
			<path fill="#ECEDED" d="M131.8,211.8c6.2,0,12,2.4,16.7,6.4c0.5,0.5,0.6,1.4,0.1,1.9l-4.2,4.4c-0.5,0.5-1.2,0.5-1.8,0
				c-2.9-2.6-6.6-4-10.3-4c-8.5,0-15.3,7.3-15.3,15.9c0,8.5,6.8,15.7,15.4,15.7c3.8,0,6.8-1.2,8.1-1.7v-5.8h-5.5
				c-0.8,0-1.3-0.5-1.3-1.2v-5.4c0-0.8,0.5-1.3,1.3-1.3h13.1c0.7,0,1.2,0.6,1.2,1.3v17.5c0,0.5-0.3,0.9-0.5,1.1c0,0-7,4.4-16.9,4.4
				c-13.6,0-24.5-10.8-24.5-24.5S118.2,211.8,131.8,211.8z"/>
		</g>
		<g>
			<path fill="#ECEDED" d="M215.9,213.8c0-0.7,0.5-1.3,1.2-1.3h16.2c13.2,0,24,10.7,24,23.9c0,13.3-10.8,24-24,24h-16.2
				c-0.7,0-1.2-0.6-1.2-1.3V213.8z M232.5,252c8.9,0,15.4-6.7,15.4-15.7c0-8.9-6.5-15.6-15.4-15.6h-7.8V252H232.5z"/>
		</g>
		<g>
			<path fill="#ECEDED" d="M343.9,211.8c6.2,0,12,2.4,16.7,6.4c0.5,0.5,0.6,1.4,0.1,1.9l-4.2,4.4c-0.5,0.5-1.2,0.5-1.8,0
				c-2.9-2.6-6.6-4-10.3-4c-8.5,0-15.3,7.3-15.3,15.9c0,8.5,6.8,15.7,15.4,15.7c3.8,0,6.8-1.2,8.1-1.7v-5.8H347
				c-0.8,0-1.3-0.5-1.3-1.2v-5.4c0-0.8,0.5-1.3,1.3-1.3h13.1c0.7,0,1.2,0.6,1.2,1.3v17.5c0,0.5-0.3,0.9-0.5,1.1c0,0-7,4.4-16.9,4.4
				c-13.6,0-24.5-10.8-24.5-24.5S330.3,211.8,343.9,211.8z"/>
		</g>
		<g>
			<path fill="#ECEDED" d="M8.8,319.7c0-0.7,0.5-1.3,1.3-1.3h16.1c8.4,0,15.3,6.8,15.3,15.1c0,8.5-6.9,15.4-15.2,15.4h-8.5v16.1
				c0,0.7-0.6,1.3-1.3,1.3h-6.3c-0.8,0-1.3-0.6-1.3-1.3V319.7z M25.6,340.5c3.8,0,7-3.1,7-7.1c0-3.8-3.2-6.6-7-6.6h-7.9v13.7H25.6z"
				/>
		</g>
		<g>
			<path fill="#ECEDED" d="M114.9,319.7c0-0.7,0.5-1.3,1.3-1.3H144c0.8,0,1.3,0.6,1.3,1.3v5.6c0,0.7-0.5,1.3-1.3,1.3h-20.2v11.2
				h16.9c0.7,0,1.3,0.6,1.3,1.3v5.7c0,0.8-0.6,1.3-1.3,1.3h-16.9v12H144c0.8,0,1.3,0.6,1.3,1.3v5.6c0,0.7-0.5,1.3-1.3,1.3h-27.8
				c-0.8,0-1.3-0.6-1.3-1.3V319.7z"/>
		</g>
		<g>
			<path fill="#ECEDED" d="M230.4,319.7c0-0.7,0.6-1.3,1.3-1.3h6.4c0.7,0,1.3,0.6,1.3,1.3v45.2c0,0.7-0.6,1.3-1.3,1.3h-6.4
				c-0.7,0-1.3-0.6-1.3-1.3V319.7z"/>
		</g>
		<g>
			<path fill="#ECEDED" d="M336.4,326.6h-10.5c-0.8,0-1.3-0.6-1.3-1.3v-5.6c0-0.7,0.5-1.3,1.3-1.3h29.9c0.8,0,1.3,0.6,1.3,1.3v5.6
				c0,0.7-0.5,1.3-1.3,1.3h-10.5v38.3c0,0.7-0.6,1.3-1.3,1.3h-6.4c-0.7,0-1.3-0.6-1.3-1.3V326.6z"/>
		</g>
		<g>
			<path fill="#ECEDED" d="M896.3,1.6c0-0.7,0.6-1.3,1.3-1.3h6.4c0.7,0,1.3,0.6,1.3,1.3v45.2c0,0.7-0.6,1.3-1.3,1.3h-6.4
				c-0.7,0-1.3-0.6-1.3-1.3V1.6z"/>
		</g>
		<g>
			<path fill="#ECEDED" d="M992.9,1.6c0-0.7,0.5-1.3,1.3-1.3h27.8c0.8,0,1.3,0.6,1.3,1.3v5.6c0,0.7-0.5,1.3-1.3,1.3h-20.2v11.2h16.9
				c0.7,0,1.3,0.6,1.3,1.3v5.7c0,0.8-0.6,1.3-1.3,1.3h-16.9v12h20.2c0.8,0,1.3,0.6,1.3,1.3v5.6c0,0.7-0.5,1.3-1.3,1.3h-27.8
				c-0.8,0-1.3-0.6-1.3-1.3V1.6z"/>
		</g>
		<g>
			<path fill="#ECEDED" d="M1097.6,42.2l3.6-3.6c0.8-0.7,1.4-0.5,2.1,0.1c0.9,1,2.3,2.2,4.5,2.2c2.7,0,5.5-2.2,5.5-6.9V1.6
				c0-0.7,0.5-1.3,1.3-1.3h6.4c0.8,0,1.3,0.6,1.3,1.3v32.3c0,9.5-6.4,15-14.4,15c-5.9,0-9.2-3.6-10.4-5
				C1097.1,43.3,1097.1,42.6,1097.6,42.2z"/>
		</g>
		<g>
			<path fill="#ECEDED" d="M1196.2,46.4l21.3-46c0.2-0.4,0.5-0.8,1.2-0.8h0.7c0.7,0,1,0.3,1.2,0.8l21.1,46c0.4,0.9-0.1,1.8-1.2,1.8
				h-5.9c-1,0-1.5-0.4-2-1.4l-3.3-7.4h-20.4l-3.3,7.4c-0.3,0.7-0.9,1.4-2,1.4h-5.9C1196.3,48.2,1195.8,47.3,1196.2,46.4z
				 M1225.7,31.8l-6.8-15h-0.2l-6.7,15H1225.7z"/>
		</g>
		<g>
			<path fill="#ECEDED" d="M1302.2,2.1c-0.4-0.9,0.1-1.8,1.2-1.8h7c0.6,0,1,0.4,1.2,0.8l13.1,29.4h0.5l13.1-29.4
				c0.1-0.3,0.5-0.8,1.2-0.8h7c1,0,1.6,0.9,1.2,1.8l-21.2,46c-0.2,0.4-0.5,0.8-1.2,0.8h-0.7c-0.6,0-1-0.3-1.2-0.8L1302.2,2.1z"/>
		</g>
		<g>
			<path fill="#ECEDED" d="M1408.2,46.4l21.3-46c0.2-0.4,0.5-0.8,1.2-0.8h0.7c0.7,0,1,0.3,1.2,0.8l21.1,46c0.4,0.9-0.1,1.8-1.2,1.8
				h-5.9c-1,0-1.5-0.4-2-1.4l-3.3-7.4h-20.4l-3.3,7.4c-0.3,0.7-0.9,1.4-2,1.4h-5.9C1408.3,48.2,1407.8,47.3,1408.2,46.4z
				 M1437.7,31.8l-6.8-15h-0.2l-6.7,15H1437.7z"/>
		</g>
		<g>
			<path fill="#ECEDED" d="M1521.9,1.6c0-0.7,0.5-1.3,1.3-1.3h15.7c8.1,0,14.4,5.5,14.4,12.6c0,5.3-4.3,9.4-7.5,10.9
				c3.6,1.2,8.9,4.9,8.9,11.1c0,7.7-6.6,13.2-14.9,13.2h-16.5c-0.8,0-1.3-0.6-1.3-1.3V1.6z M1538.1,20.4c3.5,0,5.9-2.7,5.9-6.2
				c0-3.4-2.4-5.8-5.9-5.8h-7.3v12H1538.1z M1539,40.1c3.4,0,6.2-2.7,6.2-6.2c0-3.4-3.4-5.9-7-5.9h-7.4v12.2H1539z"/>
		</g>
		<g>
			<path fill="#ECEDED" d="M1638.3,1.6c0-0.7,0.6-1.3,1.3-1.3h6.4c0.7,0,1.3,0.6,1.3,1.3v45.2c0,0.7-0.6,1.3-1.3,1.3h-6.4
				c-0.7,0-1.3-0.6-1.3-1.3V1.6z"/>
		</g>
		<g>
			<path fill="#ECEDED" d="M1728.6,0.9c0-0.7,0.6-1.2,1.3-1.2h1.7l28.4,30.2h0.1V1.6c0-0.7,0.5-1.3,1.3-1.3h6.3
				c0.7,0,1.3,0.6,1.3,1.3v46c0,0.7-0.6,1.2-1.3,1.2h-1.6l-28.6-31.4h-0.1v29.4c0,0.7-0.5,1.3-1.3,1.3h-6.2c-0.7,0-1.3-0.6-1.3-1.3
				V0.9z"/>
		</g>
		<g>
			<path fill="#ECEDED" d="M1839.8,41.5l2.5-4.2c0.5-1,1.7-1,2.3-0.5c0.3,0.2,5.9,4.2,10.3,4.2c3.6,0,6.2-2.3,6.2-5.3
				c0-3.5-2.9-5.9-8.7-8.2c-6.4-2.6-12.8-6.7-12.8-14.8c0-6.1,4.5-13.1,15.4-13.1c7,0,12.3,3.6,13.7,4.6c0.7,0.4,0.9,1.6,0.4,2.3
				l-2.6,3.9c-0.5,0.8-1.6,1.4-2.4,0.8c-0.5-0.3-5.7-3.8-9.5-3.8c-3.9,0-6,2.6-6,4.8c0,3.2,2.5,5.4,8.1,7.7
				c6.6,2.7,14.3,6.6,14.3,15.4c0,7-6.1,13.5-15.7,13.5c-8.6,0-13.7-4-15-5.3C1839.5,42.9,1839.2,42.6,1839.8,41.5z"/>
		</g>
		<g>
			<path fill="#ECEDED" d="M1946.9,1.6c0-0.7,0.5-1.3,1.3-1.3h16.1c8.4,0,15.3,6.8,15.3,15.1c0,8.5-6.9,15.4-15.2,15.4h-8.5v16.1
				c0,0.7-0.6,1.3-1.3,1.3h-6.3c-0.8,0-1.3-0.6-1.3-1.3V1.6z M1963.7,22.5c3.8,0,7-3.1,7-7.1c0-3.8-3.2-6.6-7-6.6h-7.9v13.7H1963.7z
				"/>
		</g>
		<g>
			<path fill="#ECEDED" d="M2062.3,1.6c0-0.7,0.6-1.3,1.3-1.3h6.4c0.7,0,1.3,0.6,1.3,1.3v45.2c0,0.7-0.6,1.3-1.3,1.3h-6.4
				c-0.7,0-1.3-0.6-1.3-1.3V1.6z"/>
		</g>
		<g>
			<path fill="#ECEDED" d="M2154.3,1.6c0-0.7,0.5-1.3,1.3-1.3h19.5c8.2,0,14.9,6.6,14.9,14.7c0,6.3-4.2,11.4-10.1,13.8l9.4,17.4
				c0.5,0.9,0,2-1.2,2h-7.2c-0.6,0-1-0.3-1.1-0.6l-9.1-18.1h-7.6v17.4c0,0.7-0.6,1.3-1.3,1.3h-6.3c-0.8,0-1.3-0.6-1.3-1.3V1.6z
				 M2174.3,22.1c3.6,0,6.8-3.1,6.8-7c0-3.6-3.1-6.6-6.8-6.6h-11.1v13.6H2174.3z"/>
		</g>
		<g>
			<path fill="#ECEDED" d="M2262.9,1.6c0-0.7,0.5-1.3,1.3-1.3h27.8c0.8,0,1.3,0.6,1.3,1.3v5.6c0,0.7-0.5,1.3-1.3,1.3h-20.2v11.2
				h16.9c0.7,0,1.3,0.6,1.3,1.3v5.7c0,0.8-0.6,1.3-1.3,1.3h-16.9v12h20.2c0.8,0,1.3,0.6,1.3,1.3v5.6c0,0.7-0.5,1.3-1.3,1.3h-27.8
				c-0.8,0-1.3-0.6-1.3-1.3V1.6z"/>
		</g>
		<g>
			<path fill="#ECEDED" d="M2371.8,1.6c0-0.7,0.5-1.3,1.3-1.3h6.3c0.7,0,1.3,0.6,1.3,1.3V40h17.4c0.8,0,1.3,0.6,1.3,1.3v5.6
				c0,0.7-0.5,1.3-1.3,1.3h-25c-0.8,0-1.3-0.6-1.3-1.3V1.6z"/>
		</g>
		<g>
			<path fill="#ECEDED" d="M435.6,110.5c0-0.7,0.5-1.3,1.2-1.3H453c13.2,0,24,10.7,24,23.9c0,13.3-10.8,24-24,24h-16.2
				c-0.7,0-1.2-0.6-1.2-1.3V110.5z M452.2,148.7c8.9,0,15.4-6.7,15.4-15.7c0-8.9-6.5-15.6-15.4-15.6h-7.8v31.2H452.2z"/>
		</g>
		<g>
			<path fill="#ECEDED" d="M556.6,110.5c0-0.7,0.5-1.3,1.3-1.3h27.8c0.8,0,1.3,0.6,1.3,1.3v5.6c0,0.7-0.5,1.3-1.3,1.3h-20.2v11.2
				h16.9c0.7,0,1.3,0.6,1.3,1.3v5.7c0,0.8-0.6,1.3-1.3,1.3h-16.9v12h20.2c0.8,0,1.3,0.6,1.3,1.3v5.6c0,0.7-0.5,1.3-1.3,1.3h-27.8
				c-0.8,0-1.3-0.6-1.3-1.3V110.5z"/>
		</g>
		<g>
			<path fill="#ECEDED" d="M670.3,110.5c0-0.7,0.5-1.3,1.3-1.3h27.8c0.8,0,1.3,0.6,1.3,1.3v5.6c0,0.7-0.5,1.3-1.3,1.3h-20.2v12.8
				H696c0.7,0,1.3,0.6,1.3,1.3v5.6c0,0.7-0.6,1.3-1.3,1.3h-16.9v17.3c0,0.7-0.6,1.3-1.3,1.3h-6.3c-0.8,0-1.3-0.6-1.3-1.3V110.5z"/>
		</g>
		<g>
			<path fill="#ECEDED" d="M792.6,134L777,111.2c-0.5-0.9,0-2,1.1-2h7c0.5,0,0.9,0.3,1.1,0.6l10.9,15.7l10.9-15.7
				c0.2-0.3,0.5-0.6,1.1-0.6h7c1.1,0,1.6,1.1,1.1,2l-15.8,22.8v21.8c0,0.7-0.6,1.3-1.3,1.3h-6.3c-0.8,0-1.3-0.6-1.3-1.3V134z"/>
		</g>
		<g>
			<path fill="#ECEDED" d="M441.6,213.8c0-0.7,0.5-1.3,1.3-1.3h27.8c0.8,0,1.3,0.6,1.3,1.3v5.6c0,0.7-0.5,1.3-1.3,1.3h-20.2v12.8
				h16.9c0.7,0,1.3,0.6,1.3,1.3v5.6c0,0.7-0.6,1.3-1.3,1.3h-16.9V259c0,0.7-0.6,1.3-1.3,1.3h-6.3c-0.8,0-1.3-0.6-1.3-1.3V213.8z"/>
		</g>
		<g>
			<path fill="#ECEDED" d="M566,213.8c0-0.7,0.6-1.3,1.3-1.3h6.4c0.7,0,1.3,0.6,1.3,1.3V259c0,0.7-0.6,1.3-1.3,1.3h-6.4
				c-0.7,0-1.3-0.6-1.3-1.3V213.8z"/>
		</g>
		<g>
			<path fill="#ECEDED" d="M663.1,213c0-0.7,0.6-1.2,1.3-1.2h1.7l28.4,30.2h0.1v-28.2c0-0.7,0.5-1.3,1.3-1.3h6.3
				c0.7,0,1.3,0.6,1.3,1.3v46c0,0.7-0.6,1.2-1.3,1.2h-1.6L672,229.7h-0.1V259c0,0.7-0.5,1.3-1.3,1.3h-6.2c-0.7,0-1.3-0.6-1.3-1.3
				V213z"/>
		</g>
		<g>
			<path fill="#ECEDED" d="M778.1,213.8c0-0.7,0.5-1.3,1.2-1.3h16.2c13.2,0,24,10.7,24,23.9c0,13.3-10.8,24-24,24h-16.2
				c-0.7,0-1.2-0.6-1.2-1.3V213.8z M794.7,252c8.9,0,15.4-6.7,15.4-15.7c0-8.9-6.5-15.6-15.4-15.6h-7.8V252H794.7z"/>
		</g>
		<g>
			<path fill="#ECEDED" d="M440.7,1.6c0-0.7,0.5-1.3,1.3-1.3h27.8c0.8,0,1.3,0.6,1.3,1.3v5.6c0,0.7-0.5,1.3-1.3,1.3h-20.2v11.2h16.9
				c0.7,0,1.3,0.6,1.3,1.3v5.7c0,0.8-0.6,1.3-1.3,1.3h-16.9v12h20.2c0.8,0,1.3,0.6,1.3,1.3v5.6c0,0.7-0.5,1.3-1.3,1.3H442
				c-0.8,0-1.3-0.6-1.3-1.3V1.6z"/>
		</g>
		<g>
			<path fill="#ECEDED" d="M554.9,1.6c0-0.7,0.5-1.3,1.3-1.3h19.5c8.2,0,14.9,6.6,14.9,14.7c0,6.3-4.2,11.4-10.1,13.8l9.4,17.4
				c0.5,0.9,0,2-1.2,2h-7.2c-0.6,0-1-0.3-1.1-0.6l-9.1-18.1h-7.6v17.4c0,0.7-0.6,1.3-1.3,1.3h-6.3c-0.8,0-1.3-0.6-1.3-1.3V1.6z
				 M575,22.1c3.6,0,6.8-3.1,6.8-7c0-3.6-3.1-6.6-6.8-6.6h-11.1v13.6H575z"/>
		</g>
		<g>
			<path fill="#ECEDED" d="M669.4,1.6c0-0.7,0.5-1.3,1.3-1.3h27.8c0.8,0,1.3,0.6,1.3,1.3v5.6c0,0.7-0.5,1.3-1.3,1.3h-20.2v11.2h16.9
				c0.7,0,1.3,0.6,1.3,1.3v5.7c0,0.8-0.6,1.3-1.3,1.3h-16.9v12h20.2c0.8,0,1.3,0.6,1.3,1.3v5.6c0,0.7-0.5,1.3-1.3,1.3h-27.8
				c-0.8,0-1.3-0.6-1.3-1.3V1.6z"/>
		</g>
		<g>
			<path fill="#ECEDED" d="M774.5,2.1c-0.4-0.9,0.1-1.8,1.2-1.8h7c0.6,0,1,0.4,1.2,0.8l13.1,29.4h0.5l13.1-29.4
				c0.1-0.3,0.5-0.8,1.2-0.8h7c1,0,1.6,0.9,1.2,1.8l-21.2,46c-0.2,0.4-0.5,0.8-1.2,0.8h-0.7c-0.6,0-1-0.3-1.2-0.8L774.5,2.1z"/>
		</g>
		<g>
			<path fill="#ECEDED" d="M0.1,46.4l21.3-46c0.2-0.4,0.5-0.8,1.2-0.8h0.7c0.7,0,1,0.3,1.2,0.8l21.1,46c0.4,0.9-0.1,1.8-1.2,1.8
				h-5.9c-1,0-1.5-0.4-2-1.4L33,39.4H12.6l-3.3,7.4c-0.3,0.7-0.9,1.4-2,1.4H1.3C0.3,48.2-0.3,47.3,0.1,46.4z M29.7,31.8l-6.8-15
				h-0.2l-6.7,15H29.7z"/>
		</g>
		<g>
			<path fill="#ECEDED" d="M114.9,1.6c0-0.7,0.5-1.3,1.3-1.3H144c0.8,0,1.3,0.6,1.3,1.3v5.6c0,0.7-0.5,1.3-1.3,1.3h-20.2v11.2h16.9
				c0.7,0,1.3,0.6,1.3,1.3v5.7c0,0.8-0.6,1.3-1.3,1.3h-16.9v12H144c0.8,0,1.3,0.6,1.3,1.3v5.6c0,0.7-0.5,1.3-1.3,1.3h-27.8
				c-0.8,0-1.3-0.6-1.3-1.3V1.6z"/>
		</g>
		<g>
			<path fill="#ECEDED" d="M216.2,0.7c0.1-0.5,0.5-1,1.2-1h1.1c0.5,0,1,0.3,1.2,0.7l15,32.3c0.1,0,0.1,0,0.2,0l15-32.3
				c0.2-0.4,0.5-0.7,1.2-0.7h1.1c0.8,0,1.2,0.5,1.2,1l8.1,45.9c0.2,1-0.3,1.6-1.2,1.6h-6.2c-0.6,0-1.2-0.5-1.3-1l-4-25.9
				c-0.1,0-0.2,0-0.2,0l-12,26.9c-0.1,0.4-0.5,0.8-1.2,0.8h-1.2c-0.6,0-1-0.3-1.2-0.8L221,21.2c0,0-0.1,0-0.2,0l-4,25.9
				c-0.1,0.5-0.6,1-1.2,1h-6.2c-0.9,0-1.4-0.6-1.3-1.6L216.2,0.7z"/>
		</g>
		<g>
			<path fill="#ECEDED" d="M327,1.6c0-0.7,0.5-1.3,1.3-1.3h27.8c0.8,0,1.3,0.6,1.3,1.3v5.6c0,0.7-0.5,1.3-1.3,1.3h-20.2v11.2h16.9
				c0.7,0,1.3,0.6,1.3,1.3v5.7c0,0.8-0.6,1.3-1.3,1.3h-16.9v12h20.2c0.8,0,1.3,0.6,1.3,1.3v5.6c0,0.7-0.5,1.3-1.3,1.3h-27.8
				c-0.8,0-1.3-0.6-1.3-1.3V1.6z"/>
		</g>
	</g>
</g>
</svg>
